<svg width="28" height="30" viewBox="0 0 28 30" fill="none" xmlns="http://www.w3.org/2000/svg">
<g filter="url(#filter0_d_187_3041)">
<path d="M14 6.75V8.25" stroke="#42C920" stroke-width="1.5" stroke-linecap="round" stroke-linejoin="round"/>
<path d="M14 15.75V17.25" stroke="#42C920" stroke-width="1.5" stroke-linecap="round" stroke-linejoin="round"/>
<path d="M14 21C18.9706 21 23 16.9706 23 12C23 7.02944 18.9706 3 14 3C9.02944 3 5 7.02944 5 12C5 16.9706 9.02944 21 14 21Z" stroke="#42C920" stroke-width="1.5" stroke-linecap="round" stroke-linejoin="round"/>
<path d="M11.75 15.75H15.125C15.6223 15.75 16.0992 15.5525 16.4508 15.2008C16.8025 14.8492 17 14.3723 17 13.875C17 13.3777 16.8025 12.9008 16.4508 12.5492C16.0992 12.1975 15.6223 12 15.125 12H12.875C12.3777 12 11.9008 11.8025 11.5492 11.4508C11.1975 11.0992 11 10.6223 11 10.125C11 9.62772 11.1975 9.15081 11.5492 8.79917C11.9008 8.44754 12.3777 8.25 12.875 8.25H16.25" stroke="#42C920" stroke-width="1.5" stroke-linecap="round" stroke-linejoin="round"/>
</g>
<defs>
<filter id="filter0_d_187_3041" x="0.25" y="2.25" width="27.5" height="27.5" filterUnits="userSpaceOnUse" color-interpolation-filters="sRGB">
<feFlood flood-opacity="0" result="BackgroundImageFix"/>
<feColorMatrix in="SourceAlpha" type="matrix" values="0 0 0 0 0 0 0 0 0 0 0 0 0 0 0 0 0 0 127 0" result="hardAlpha"/>
<feOffset dy="4"/>
<feGaussianBlur stdDeviation="2"/>
<feComposite in2="hardAlpha" operator="out"/>
<feColorMatrix type="matrix" values="0 0 0 0 0 0 0 0 0 0 0 0 0 0 0 0 0 0 0.25 0"/>
<feBlend mode="normal" in2="BackgroundImageFix" result="effect1_dropShadow_187_3041"/>
<feBlend mode="normal" in="SourceGraphic" in2="effect1_dropShadow_187_3041" result="shape"/>
</filter>
</defs>
</svg>
